<svg id="Layer_1" data-name="Layer 1" xmlns="http://www.w3.org/2000/svg" xmlns:xlink="http://www.w3.org/1999/xlink" viewBox="0 0 256 256"><defs><style>.cls-1{fill:url(#linear-gradient);}.cls-2{fill:url(#linear-gradient-2);}.cls-3{fill:url(#linear-gradient-3);}</style><linearGradient id="linear-gradient" x1="86.65" y1="158.07" x2="197.07" y2="158.07" gradientUnits="userSpaceOnUse"><stop offset="0" stop-color="#15a0ff"/><stop offset="1" stop-color="#001a94"/></linearGradient><linearGradient id="linear-gradient-2" x1="42.49" y1="147.56" x2="243.26" y2="147.56" gradientUnits="userSpaceOnUse"><stop offset="0" stop-color="#001a94"/><stop offset="1" stop-color="#15a0ff"/></linearGradient><linearGradient id="linear-gradient-3" x1="12.74" y1="128" x2="234.28" y2="128" xlink:href="#linear-gradient"/></defs><polygon class="cls-1" points="181.7 176.41 178.18 176.41 115.65 176.41 142.87 128.19 151.85 144.92 164.3 144.92 142.87 104.99 97.31 187.38 106.48 187.38 174.67 187.38 179.93 200.18 92.66 200.18 86.65 211.15 197.07 211.15 181.7 176.41"/><path class="cls-2" d="M203.84,165.81l-6.2-10.5L142.87,62.53,42.49,232.59H243.26Zm-61-81.7,42,71.24,6.2,10.49,32.93,55.78H61.69Z"/><polygon class="cls-3" points="234.28 165.73 203.84 165.81 191.12 165.84 162.64 165.92 157.52 155.42 184.92 155.35 197.64 155.31 215.07 155.28 142.87 42.8 25.24 232.59 12.74 232.59 142.87 23.41 234.28 165.73"/></svg>